<svg width="74" height="75" viewBox="0 0 74 75" fill="none" xmlns="http://www.w3.org/2000/svg">
<g id="Group 22">
<g id="Ellipse 26" filter="url(#filter0_d_25_40)">
<circle cx="37" cy="34.25" r="28" fill="url(#paint0_linear_25_40)"/>
</g>
<path id="Vector" fill-rule="evenodd" clip-rule="evenodd" d="M48.2153 39.376C48.0869 39.6161 47.991 39.8821 47.824 40.0915C47.307 40.7397 46.3316 40.8297 45.6853 40.3118C45.5774 40.2254 45.4764 40.1294 45.3786 40.0316C42.6532 37.3071 39.9286 34.5819 37.2045 31.8561C37.143 31.7946 37.0895 31.7249 36.9613 31.5773C36.8995 31.6866 36.8706 31.7777 36.8107 31.8378C34.0624 34.5909 31.3107 37.3406 28.5612 40.0926C28.0769 40.5773 27.5165 40.7767 26.8496 40.5536C26.3642 40.3912 26.037 40.0562 25.869 39.5693C25.8461 39.503 25.813 39.4404 25.7846 39.376C25.7846 39.1862 25.7846 38.9963 25.7846 38.8065C25.9072 38.3011 26.2485 37.9482 26.6027 37.5948C29.6664 34.5384 32.7258 31.4777 35.7841 28.4159C36.2742 27.9252 36.8417 27.7109 37.5113 27.9537C37.7493 28.04 37.9831 28.1955 38.1634 28.3751C41.3488 31.547 44.5251 34.7283 47.7056 37.9052C47.9613 38.1606 48.1113 38.4689 48.2153 38.8065C48.2153 38.9963 48.2153 39.1862 48.2153 39.376Z" fill="white"/>
</g>
<defs>
<filter id="filter0_d_25_40" x="0" y="0.25" width="74" height="74" filterUnits="userSpaceOnUse" color-interpolation-filters="sRGB">
<feFlood flood-opacity="0" result="BackgroundImageFix"/>
<feColorMatrix in="SourceAlpha" type="matrix" values="0 0 0 0 0 0 0 0 0 0 0 0 0 0 0 0 0 0 127 0" result="hardAlpha"/>
<feOffset dy="3"/>
<feGaussianBlur stdDeviation="4.5"/>
<feComposite in2="hardAlpha" operator="out"/>
<feColorMatrix type="matrix" values="0 0 0 0 0.588235 0 0 0 0 0.396078 0 0 0 0 0.615686 0 0 0 1 0"/>
<feBlend mode="normal" in2="BackgroundImageFix" result="effect1_dropShadow_25_40"/>
<feBlend mode="normal" in="SourceGraphic" in2="effect1_dropShadow_25_40" result="shape"/>
</filter>
<linearGradient id="paint0_linear_25_40" x1="37" y1="6.25" x2="37" y2="62.25" gradientUnits="userSpaceOnUse">
<stop stop-color="#FF00E5"/>
<stop offset="1" stop-color="#96659D"/>
</linearGradient>
</defs>
</svg>
